<?xml version="1.0" encoding="UTF-8" standalone="no"?>
<!-- Created with Inkscape (http://www.inkscape.org/) -->

<svg
   width="175.95645mm"
   height="12.000005mm"
   viewBox="0 0 175.95645 12.000005"
   version="1.1"
   id="svg5"
   xml:space="preserve"
   inkscape:version="1.2.2 (b0a8486541, 2022-12-01)"
   sodipodi:docname="logos_Us.svg"
   xmlns:inkscape="http://www.inkscape.org/namespaces/inkscape"
   xmlns:sodipodi="http://sodipodi.sourceforge.net/DTD/sodipodi-0.dtd"
   xmlns:xlink="http://www.w3.org/1999/xlink"
   xmlns="http://www.w3.org/2000/svg"
   xmlns:svg="http://www.w3.org/2000/svg"><sodipodi:namedview
     id="namedview7"
     pagecolor="#ffffff"
     bordercolor="#000000"
     borderopacity="0.25"
     inkscape:showpageshadow="2"
     inkscape:pageopacity="0.0"
     inkscape:pagecheckerboard="0"
     inkscape:deskcolor="#d1d1d1"
     inkscape:document-units="mm"
     showgrid="false"
     inkscape:zoom="0.79909512"
     inkscape:cx="117.00735"
     inkscape:cy="201.47789"
     inkscape:window-width="1920"
     inkscape:window-height="1014"
     inkscape:window-x="1920"
     inkscape:window-y="1109"
     inkscape:window-maximized="1"
     inkscape:current-layer="layer1" /><defs
     id="defs2"><clipPath
       clipPathUnits="userSpaceOnUse"
       id="clipPath3711"><g
         id="g3717"
         transform="translate(-1.0616016e-5,-1.6268429e-5)"><g
           id="g3715"
           transform="matrix(0.99999865,0,0,0.99999951,-2.702442e-5,1.566094e-5)"><path
             d="m 1531.387,2698.699 h 423.57 v 142.953 h -423.57 z"
             id="path3713" /></g></g></clipPath><rect
       id="SVGID_1_"
       x="0.75702882"
       y="-0.1805025"
       width="226.96594"
       height="207.24101" /></defs><g
     inkscape:label="Layer 1"
     inkscape:groupmode="layer"
     id="layer1"
     transform="translate(-12.929692,-95.363403)"><g
       id="g46"
       transform="matrix(0.0494371,0,0,0.0494371,59.752339,65.490685)">
	<g
   id="g44">
		<defs
   id="defs5">
			<rect
   id="rect222"
   x="0.75702882"
   y="-0.1805025"
   width="226.96594"
   height="207.24101" />
		</defs>
		<clipPath
   id="SVGID_2_">
			<use
   xlink:href="#SVGID_1_"
   style="overflow:visible"
   id="use7"
   x="0"
   y="0"
   width="100%"
   height="100%" />
		</clipPath>
		
		
		
		
		
		
		
		
		
		
		
		
		
		
		
		
		
	<g
   id="g5630"><g
     id="g886"
     transform="matrix(1.0442602,0,0,1.0442602,-641.62299,47.830918)"><g
       id="g903"><path
         class="st0"
         d="m 141.9294,7.7334075 c 0,1.0070186 0.867,1.8250117 1.93603,1.8250117 1.07099,0 1.93799,-0.8179932 1.93799,-1.8250117 0,-1.0059814 -0.867,-1.8209839 -1.93799,-1.8209839 -1.06903,0 -1.93603,0.8150025 -1.93603,1.8209839 m 15.34601,9.5840155 c 0,-1.006012 0.87097,-1.822999 1.93798,-1.822999 1.07196,0 1.93695,0.816987 1.93695,1.822999 0,1.007996 -0.86499,1.822998 -1.93695,1.822998 -0.73797,0 -1.38397,-0.390991 -1.70898,-0.963013 0.83398,2.281006 1.41302,4.684021 1.58899,7.068024 0.095,0.800995 0.14899,1.548981 0.17303,2.248993 0.21601,-0.786988 0.97498,-1.368012 1.87696,-1.368012 1.07202,0 1.93799,0.818024 1.93799,1.822998 0,1.007019 -0.86597,1.825012 -1.93799,1.825012 -0.88697,0 -1.63697,-0.565002 -1.86298,-1.334014 -0.044,4.202024 -1.30902,6.400999 -2.06903,7.326017 l -0.20197,0.243988 c 0.28498,-0.154999 0.61701,-0.246979 0.97101,-0.246979 1.06897,0 1.93598,0.814972 1.93598,1.824982 0,1.006012 -0.86701,1.822998 -1.93598,1.822998 -1.07104,0 -1.93902,-0.816986 -1.93902,-1.822998 0,-0.209992 0.037,-0.408997 0.10498,-0.596008 -1.48096,1.636016 -3.06195,3.10202 -4.823,4.674011 0.27502,-0.140991 0.58905,-0.222992 0.92206,-0.222992 1.06994,0 1.93695,0.817993 1.93695,1.825989 0,1.006012 -0.86701,1.822998 -1.93695,1.822998 -1.07001,0 -1.93701,-0.816986 -1.93701,-1.822998 0,-0.35199 0.10498,-0.681 0.28796,-0.958985 -1.54498,1.369995 -3.22797,2.842987 -5.09296,4.58899 -0.79901,0.868011 -0.57605,1.66101 0.78797,2.756988 0.60699,0.537995 1.21899,1.102997 1.82904,1.679016 -0.14203,-0.25 -0.22003,-0.53601 -0.22003,-0.838013 0,-1.009979 0.86798,-1.825988 1.93597,-1.825988 1.07202,0 1.93903,0.816009 1.93903,1.825988 0,1.005005 -0.86701,1.821015 -1.93903,1.821015 -0.33496,0 -0.65594,-0.082 -0.93298,-0.223999 1.72699,1.678985 3.39898,3.427978 4.84698,4.947998 -0.13299,-0.244995 -0.20996,-0.527008 -0.20996,-0.822998 0,-1.009003 0.86701,-1.822998 1.93799,-1.822998 1.07202,0 1.94,0.813995 1.94,1.822998 0,1.005981 -0.86798,1.821991 -1.94,1.821991 -0.39398,0 -0.76001,-0.109009 -1.06598,-0.299988 0.80701,0.845978 1.52197,1.598999 2.11896,2.198975 1.79199,1.917999 1.89905,3.415008 0.10602,5.528015 -0.51398,0.563995 -1.21302,1.27301 -2.03101,2.071991 0.24701,-0.104981 0.52002,-0.165985 0.81403,-0.165985 1.06597,0 1.93499,0.815979 1.93499,1.820984 0,1.010009 -0.86902,1.825012 -1.93499,1.825012 -1.07502,0 -1.94104,-0.815003 -1.94104,-1.825012 0,-0.252991 0.058,-0.496003 0.15704,-0.71698 -1.58905,1.518981 -3.48004,3.268981 -5.32404,4.972991 0.28504,-0.153015 0.61304,-0.242004 0.96503,-0.242004 1.07001,0 1.93701,0.815002 1.93701,1.822998 0,1.006989 -0.867,1.822998 -1.93701,1.822998 -1.07001,0 -1.93799,-0.816009 -1.93799,-1.822998 0,-0.34201 0.10401,-0.664001 0.276,-0.937988 -1.73401,1.603973 -3.388,3.136978 -4.66205,4.365982 -1.294,1.354996 -0.63494,1.567001 0.448,3.001999 l 1.55506,1.824997 c -0.10804,-0.224991 -0.16706,-0.474991 -0.16706,-0.733994 0,-1.008011 0.86805,-1.824005 1.94001,-1.824005 1.07,0 1.93499,0.815994 1.93499,1.824005 0,1.005997 -0.86499,1.822998 -1.93499,1.822998 -0.42298,0 -0.81397,-0.128006 -1.13196,-0.343994 1.39801,1.618988 3.00195,3.447998 4.54095,5.185989 -0.13098,-0.246994 -0.203,-0.520996 -0.203,-0.815994 0,-1.005005 0.86603,-1.822998 1.93701,-1.822998 1.07001,0 1.93701,0.817993 1.93701,1.822998 0,1.005997 -0.867,1.824997 -1.93701,1.824997 -0.43799,0 -0.83801,-0.136993 -1.164,-0.365997 l 1.07904,1.210998 c 2.08197,2.352005 2.08197,3.621002 0.17896,5.447006 l -1.36701,1.10199 c 0.20203,-0.06799 0.42401,-0.104996 0.651,-0.104996 1.07105,0 1.93805,0.815003 1.93805,1.822007 0,1.007993 -0.867,1.821003 -1.93805,1.821003 -1.06897,0 -1.93597,-0.81301 -1.93597,-1.821003 0,-0.308014 0.079,-0.600006 0.22497,-0.853012 -2.18194,1.776005 -4.17498,3.443995 -6.138,5.033005 0.20502,-0.067 0.42804,-0.107 0.66101,-0.107 1.068,0 1.93604,0.81499 1.93604,1.825 0,1.00501 -0.86804,1.821 -1.93604,1.821 -1.07196,0 -1.93896,-0.81599 -1.93896,-1.821 0,-0.32001 0.086,-0.617 0.23797,-0.87601 -1.37298,1.099 -2.747,2.16901 -4.17297,3.22501 -1.47204,1.23399 -1.82001,1.685 -0.91101,2.433 1.99298,1.677 4.01996,3.369 5.68597,5.008 -0.17199,-0.27401 -0.27496,-0.592 -0.27496,-0.934 0,-1.00399 0.86798,-1.82299 1.93897,-1.82299 1.07,0 1.93798,0.819 1.93798,1.82299 0,1.00899 -0.86798,1.821 -1.93798,1.821 -0.40998,0 -0.78901,-0.117 -1.10199,-0.319 2.02197,2.084 3.37298,4.07 3.22302,5.804 -0.54199,3.452 -4.09204,3.071 -6.219,1.76799 -4.255,-2.84098 -7.72503,-7.22399 -11.62304,-12.37699 -1.97401,-3.253 -3.18897,-4.41401 0.531,-6.952 2.59101,-2.07201 5.875,-4.593003 11.72699,-8.893997 1.67304,-1.214997 1.69501,-1.684998 0.20002,-3.473008 -3.10401,-3.457 -6.64502,-7.26799 -8.69898,-10.033996 -1.17102,-1.440003 -1.07501,-2.981003 0.12396,-4.306 3.41803,-4.057007 9.56403,-9.306976 12.61701,-12.149994 1.30401,-1.187988 1.59704,-1.915008 0.54901,-3.010986 -5.98401,-5.74701 -8.39099,-8.865998 -11.67798,-12.313019 -1.70099,-2.273987 -1.302,-3.414002 0.534,-5.300995 1.98901,-2.048004 2.21301,-2.152008 7.02398,-6.665985 7.06501,-6.466002 7.99604,-6.624998 5.21601,-11.802 -3.79798,-7.156006 -17.15503,-19.8000184 -13.38898,-22.7019959 4.07098,-3.3659973 9.42096,-2.0760193 15.52399,2.7739868 1.12396,0.8160095 2.31201,2.0050049 3.46301,3.4570003 -0.09,-0.2130127 -0.14099,-0.4440002 -0.14099,-0.6879883 0,-1.0050044 0.86694,-1.8210139 1.93695,-1.8210139 1.07202,0 1.93805,0.8160095 1.93805,1.8210139 0,1.0090027 -0.86603,1.8239751 -1.93805,1.8239751 -0.482,0 -0.92297,-0.164978 -1.263,-0.437989 1.57605,2.123993 3.04199,4.731018 4.13,7.546998 -0.026,-0.110992 -0.037,-0.22699 -0.037,-0.343994 M 114.26942,120.08541 c 6.71899,-22.276 9.59497,-46.875991 9.59497,-70.039992 0,-10.990998 -1.146,-22.058989 -3.52198,-32.833008 l 10.222,-0.002 c 1.87701,11.346985 2.64697,22.850005 2.64697,34.333008 0,26.699982 -3.62695,52.507972 -13.922,77.462982 l -1.568,0.062 h -3.47699 -3.50097 l -1.56702,-0.062 C 98.880379,104.05141 95.253426,78.243416 95.253426,51.543434 c 0,-11.483002 0.769958,-22.986021 2.646972,-34.333008 l 9.812012,0.002 c -2.37799,10.774017 -3.11401,21.842009 -3.11401,32.833008 0,23.164001 2.87701,47.763992 9.596,70.039996 h 0.075 z M 69.363411,25.245432 c 0.179016,-2.384003 0.755981,-4.787018 1.589966,-7.068024 -0.325989,0.572022 -0.968994,0.963013 -1.709961,0.963013 -1.069031,0 -1.937012,-0.815003 -1.937012,-1.822998 0,-1.006012 0.867981,-1.822999 1.937012,-1.822999 1.07196,0 1.937988,0.816987 1.937988,1.822999 0,0.117004 -0.01001,0.233002 -0.034,0.343994 1.091003,-2.826997 2.567016,-5.444001 4.148986,-7.57599 -0.335022,0.256989 -0.762024,0.411988 -1.229004,0.411988 -1.070007,0 -1.937011,-0.8159794 -1.937011,-1.8240055 0,-1.006988 0.867004,-1.8229976 1.937011,-1.8229976 1.072022,0 1.937989,0.8160095 1.937989,1.8229976 0,0.2330017 -0.04596,0.4520264 -0.127991,0.6570129 C 77.005375,7.9164214 78.169376,6.7604156 79.27338,5.9594207 85.376407,1.1094146 90.726383,-0.1805634 94.795414,3.1854339 98.561405,6.0874114 85.20441,18.731424 81.407413,25.88743 c -2.781006,5.177002 -1.851013,5.335998 5.21399,11.802 4.812988,4.513977 5.034973,4.617981 7.026977,6.665985 1.835022,1.886993 2.233032,3.027008 0.531983,5.300995 -3.287964,3.447021 -5.691956,6.566009 -11.676941,12.313018 -1.046021,1.095978 -0.755005,1.822998 0.546997,3.010987 3.053955,2.843017 9.199951,8.092987 12.617981,12.149994 1.200989,1.324997 1.294006,2.865997 0.125976,4.305999 -2.057006,2.766007 -5.597961,6.576996 -8.698974,10.033997 -1.499024,1.78801 -1.475037,2.258011 0.200012,3.473007 5.848999,4.300995 9.134949,6.821988 11.725952,8.893998 3.719064,2.53799 2.503054,3.699 0.532044,6.952 -3.898011,5.153 -7.369996,9.53601 -11.624024,12.37699 -2.127014,1.30301 -5.675964,1.68401 -6.218994,-1.76799 -0.151977,-1.734 1.200989,-3.72 3.221985,-5.804 -0.312988,0.202 -0.691956,0.319 -1.101013,0.319 -1.069947,0 -1.937989,-0.81201 -1.937989,-1.821 0,-1.00399 0.868042,-1.82299 1.937989,-1.82299 1.069031,0 1.937011,0.819 1.937011,1.82299 0,0.342 -0.100952,0.65999 -0.27301,0.93399 1.665039,-1.63899 3.692017,-3.33099 5.686035,-5.00799 0.909973,-0.748 0.559998,-1.19901 -0.908996,-2.433 -1.483032,-1.09601 -2.906006,-2.20801 -4.332032,-3.352 0.282044,0.315 0.450013,0.722 0.450013,1.16799 0,1.00501 -0.867981,1.821 -1.937989,1.821 -1.070007,0 -1.937011,-0.81599 -1.937011,-1.821 0,-1.00599 0.867004,-1.82299 1.937011,-1.82299 0.364014,0 0.70398,0.095 0.995972,0.259 -2.123962,-1.71401 -4.270996,-3.509 -6.639954,-5.445008 0.178956,0.276001 0.281983,0.601013 0.281983,0.946015 0,1.007993 -0.867981,1.821003 -1.937988,1.821003 -1.070008,0 -1.937012,-0.81301 -1.937012,-1.821003 0,-1.007004 0.867004,-1.822007 1.937012,-1.822007 0.265991,0 0.520996,0.05 0.755004,0.143006 l -1.416015,-1.14 C 74.58942,94.693412 74.58942,93.424415 76.670414,91.07241 l 1.045959,-1.175995 c -0.297973,0.173996 -0.645996,0.272995 -1.018981,0.272995 -1.070984,0 -1.939026,-0.817001 -1.939026,-1.822006 0,-1.009994 0.868042,-1.822998 1.939026,-1.822998 1.06903,0 1.937011,0.813004 1.937011,1.822998 0,0.235001 -0.04901,0.460007 -0.132995,0.665009 1.542968,-1.745011 3.141967,-3.568009 4.524963,-5.171998 -0.337952,0.265 -0.769958,0.422989 -1.240967,0.422989 -1.070007,0 -1.937011,-0.815994 -1.937011,-1.824997 0,-1.005004 0.867004,-1.820999 1.937011,-1.820999 1.070984,0 1.937989,0.815995 1.937989,1.820999 0,0.309006 -0.08002,0.598008 -0.221985,0.852005 l 1.557006,-1.828002 c 1.081971,-1.434998 1.738953,-1.647004 0.445984,-3.001999 -1.27301,-1.229004 -2.927978,-2.762009 -4.66101,-4.365982 0.174987,0.273986 0.273986,0.595977 0.273986,0.937988 0,1.006988 -0.867004,1.822998 -1.937011,1.822998 -1.070984,0 -1.936951,-0.81601 -1.936951,-1.822998 0,-1.007996 0.865967,-1.822998 1.936951,-1.822998 0.351013,0 0.682007,0.08899 0.967041,0.242004 -1.866028,-1.725006 -3.778992,-3.492004 -5.377991,-5.024994 0.13501,0.25 0.209961,0.529999 0.209961,0.825989 0,1.01001 -0.867004,1.825012 -1.936951,1.825012 -1.072021,0 -1.938049,-0.815002 -1.938049,-1.825012 0,-1.006988 0.866028,-1.822998 1.938049,-1.822998 0.332947,0 0.647949,0.07999 0.919983,0.221008 -0.867004,-0.845001 -1.604004,-1.59201 -2.142029,-2.182006 -1.791992,-2.113007 -1.685974,-3.610016 0.106995,-5.528015 0.583008,-0.586976 1.28302,-1.319977 2.069031,-2.146973 -0.307984,0.191986 -0.676026,0.303985 -1.070984,0.303985 -1.071045,0 -1.939026,-0.815002 -1.939026,-1.822998 0,-1.009002 0.867981,-1.821991 1.939026,-1.821991 1.067993,0 1.934997,0.812989 1.934997,1.821991 0,0.300995 -0.07605,0.583008 -0.210998,0.830994 1.475952,-1.553009 3.19397,-3.350006 4.962952,-5.067993 -0.276978,0.144012 -0.596985,0.225983 -0.936951,0.225983 -1.070007,0 -1.937012,-0.815979 -1.937012,-1.822998 0,-1.005982 0.867005,-1.822998 1.937012,-1.822998 1.07196,0 1.938965,0.817016 1.938965,1.822998 0,0.304016 -0.08099,0.595001 -0.222962,0.847015 0.590943,-0.561005 1.185974,-1.108002 1.776001,-1.631012 1.363953,-1.095978 1.58899,-1.888977 0.787964,-2.756988 -1.830017,-1.712006 -3.484009,-3.161011 -5.00299,-4.509003 0.195007,0.286011 0.309997,0.623993 0.309997,0.989014 0,1.006988 -0.869995,1.822998 -1.939026,1.822998 -1.069946,0 -1.93695,-0.81601 -1.93695,-1.822998 0,-1.006012 0.867004,-1.824006 1.93695,-1.824006 0.348023,0 0.673035,0.08701 0.956055,0.238007 -1.90802,-1.700012 -3.609009,-3.272003 -5.198059,-5.055023 0.143005,0.253998 0.223999,0.542999 0.223999,0.850006 0,1.006012 -0.866944,1.822998 -1.936951,1.822998 -1.072021,0 -1.937012,-0.816986 -1.937012,-1.822998 0,-1.01001 0.864991,-1.824982 1.937012,-1.824982 0.462952,0 0.886963,0.152985 1.219971,0.406983 l -0.34198,-0.403992 c -0.773987,-0.942017 -2.075012,-3.209992 -2.067993,-7.574003 -0.126038,0.890991 -0.937012,1.582 -1.920044,1.582 -1.069947,0 -1.936951,-0.817993 -1.936951,-1.825012 0,-1.004974 0.867004,-1.822998 1.936951,-1.822998 0.998047,0 1.819031,0.707001 1.926025,1.621002 0.01703,-0.772979 0.073,-1.605987 0.179016,-2.501983 M 82.167427,7.7334075 c 0,1.0070186 0.866943,1.8250117 1.937988,1.8250117 1.070008,0 1.937012,-0.8179932 1.937012,-1.8250117 0,-1.0059814 -0.867004,-1.8209839 -1.937012,-1.8209839 -1.071045,0 -1.937988,0.8150025 -1.937988,1.8209839"
         clip-path="url(#SVGID_2_)"
         id="path10"
         transform="matrix(1.6499246,0,0,1.6499246,-400.3199,530.68936)" /><g
         id="g2204"
         transform="matrix(2.3813417,0,0,2.3813417,-193.99963,235.17786)"><path
           class="st1"
           d="M 7.2461643,186.39212 H 21.776194 v -5.966 H 7.2461643 v -7.77001 H 22.20521 v -5.92 H 0.7572119 v 33.67301 H 22.680185 v -5.966 H 7.2461643 Z m 24.9190087,-17.345 h -6.523989 v 31.366 h 22.099001 v -5.607 H 32.165173 Z m 44.097042,13.336 c 0.75,-0.508 1.375976,-1.099 1.856994,-1.77901 0.894959,-1.25 1.345948,-2.81599 1.345948,-4.65199 0,-2.93801 -0.988953,-5.25501 -2.94397,-6.87801 -1.900025,-1.582 -4.588013,-2.384 -7.992004,-2.384 H 58.193188 v 33.75101 h 12.075008 c 3.53302,0 6.39502,-0.86301 8.503967,-2.569 2.170044,-1.752 3.27002,-4.129 3.27002,-7.06 0,-2.293 -0.723023,-4.27701 -2.14801,-5.89101 -0.945984,-1.073 -2.165955,-1.918 -3.631958,-2.53799 m -11.607056,-9.67501 h 3.415039 c 1.721985,0 2.95697,0.28901 3.671997,0.86001 0.659973,0.52499 0.979981,1.39799 0.979981,2.664 0,1.405 -0.427002,2.39999 -1.30597,3.05099 -0.955993,0.70401 -2.513,1.06201 -4.627014,1.06201 h -2.134033 z m 9.434021,20.691 c -0.85498,0.64801 -2.299988,0.977 -4.299988,0.977 h -5.134033 v -7.96499 h 4.400024 c 2.255982,0 3.898011,0.35 4.877015,1.044 0.888,0.624 1.320007,1.618 1.320007,3.029 0,1.365 -0.380005,2.319 -1.163025,2.91499 m 56.38502,-11.44899 c -0.011,-0.005 -0.66498,-0.371 -0.66498,-0.371 -4.44105,-2.58 -4.92304,-3.965 -4.92304,-4.44301 0,-0.69299 0.29303,-1.22699 0.92102,-1.68399 0.70398,-0.51201 1.64996,-0.77001 2.81598,-0.77001 1.013,0 2.04499,0.207 3.06604,0.614 1.05597,0.422 2.237,1.121 3.508,2.075 l 1.46997,1.097 v -6.991 l -0.46301,-0.265 c -1.22797,-0.69899 -2.46796,-1.22299 -3.67798,-1.56 -1.22101,-0.34199 -2.47601,-0.51399 -3.73499,-0.51399 -2.86402,0 -5.25299,0.788 -7.10102,2.34099 -1.89203,1.59201 -2.85101,3.66 -2.85101,6.142 0,1.77301 0.508,3.33 1.51501,4.63 0.961,1.24001 3.17499,2.892 6.76502,5.04201 2.65601,1.567 3.63898,2.398 3.99396,2.821 0.45002,0.534 0.66901,1.133 0.66901,1.83499 0,0.83501 -0.29797,1.45 -0.94501,1.933 -0.70697,0.53201 -1.729,0.802 -3.03296,0.802 -1.27301,0 -2.48999,-0.28999 -3.612,-0.86999 -1.16101,-0.60001 -2.41303,-1.607 -3.72205,-3.00101 l -1.58899,-1.69099 v 8.12899 l 0.35803,0.27701 c 1.30298,1.006 2.68702,1.752 4.10798,2.211 1.41601,0.463 3.013,0.69699 4.74799,0.69699 2.85303,0 5.23602,-0.78799 7.09204,-2.33499 1.90295,-1.59201 2.86798,-3.63901 2.86798,-6.076 0,-2.092 -0.51202,-3.88401 -1.52399,-5.327 -0.99401,-1.42 -2.97302,-2.972 -6.057,-4.748 m 38.87402,13.30899 c 2.33289,-2.797 3.51489,-6.107 3.51489,-9.84299 0,-2.27701 -0.4209,-4.423 -1.24499,-6.38 -0.82691,-1.95601 -2.0719,-3.754 -3.69898,-5.34 -1.55395,-1.52701 -3.37695,-2.718 -5.42199,-3.53401 -2.03699,-0.81599 -4.21796,-1.23099 -6.48395,-1.23099 -2.22302,0 -4.37201,0.41199 -6.38898,1.22 -2.01904,0.81 -3.854,2.00099 -5.44702,3.54 -1.57397,1.51899 -2.80499,3.293 -3.65802,5.27699 -0.85699,1.987 -1.28998,4.06201 -1.28998,6.16801 0,3.85399 1.16699,7.278 3.46997,10.17899 2.25904,2.85001 5.28504,4.765 8.98603,5.71301 2.71301,1.93199 5.32501,3.42699 7.75402,4.44499 2.52289,1.053 4.84491,1.588 6.9029,1.588 0.27905,0 0.49402,-0.003 0.64404,-0.01 0.17896,-0.013 0.36096,-0.037 0.54504,-0.075 l 0.24598,-0.048 0.18798,-0.16499 4.03601,-3.51499 0.50293,-0.436 -0.23498,-0.619 -0.1709,-0.45 -0.28503,-0.752 -0.79004,0.15399 c -0.55396,0.11 -1.07202,0.192 -1.53003,0.24701 -0.45191,0.053 -0.8689,0.076 -1.23902,0.076 -1.17297,0 -2.42089,-0.16499 -3.70092,-0.50099 -0.68799,-0.178 -1.43897,-0.427 -2.24707,-0.724 2.8601,-1.144 5.229,-2.80701 7.04211,-4.98401 m -3.70605,-6.61299 c -0.52295,1.257 -1.27906,2.384 -2.24805,3.356 -1.01392,1.03099 -2.15698,1.81799 -3.40295,2.34 -1.245,0.52299 -2.58295,0.787 -3.97797,0.787 -1.35101,0 -2.67798,-0.274 -3.94702,-0.81601 -1.27698,-0.54599 -2.41498,-1.323 -3.38397,-2.30699 -0.97303,-0.97301 -1.724,-2.10201 -2.24299,-3.358 -0.513,-1.25101 -0.77703,-2.592 -0.77703,-3.983 0,-1.403 0.26403,-2.76 0.77801,-4.02601 0.51599,-1.26399 1.26599,-2.382 2.22998,-3.32199 1.01203,-0.98901 2.16699,-1.76201 3.43305,-2.29501 1.25494,-0.53 2.57299,-0.79799 3.90997,-0.79799 1.39801,0 2.73797,0.267 3.98901,0.78699 1.24701,0.52501 2.37091,1.291 3.33893,2.289 1.021,1.03401 1.79602,2.18201 2.31201,3.41901 0.51599,1.23399 0.77698,2.56199 0.77698,3.946 0,1.388 -0.26392,2.72999 -0.78796,3.981 m 30.60205,-0.35001 c 0,1.88901 -0.65308,3.35901 -2.00305,4.50101 -1.37598,1.164 -3.24695,1.756 -5.56104,1.756 -1.38196,0 -2.62598,-0.232 -3.69592,-0.685 -1.05103,-0.442 -1.974,-1.127 -2.745,-2.034 -0.37805,-0.46001 -0.65808,-1.022 -0.82605,-1.666 -0.125,-0.48601 -0.27698,-1.53601 -0.27698,-3.77101 v -17.325 h -6.09606 v 17.49601 c 0,2.43899 0.16503,4.221 0.50805,5.438 0.35205,1.25099 0.95496,2.39599 1.797,3.41099 1.31897,1.633 2.97095,2.896 4.89905,3.74701 1.91296,0.844 4.078,1.27199 6.43591,1.27199 4,0 7.30298,-1.108 9.81702,-3.3 2.55407,-2.224 3.84802,-5.15599 3.84802,-8.71599 v -19.34801 h -6.10095 z m 15.95092,6.41701 v -7.228 h 14.61499 v -5.679 h -14.61499 v -6.966 h 15.047 v -5.64 h -21.60303 v 31.19099 h 22.08301 v -5.67799 z m -99.98096,-21.25 c -1.56396,-1.49501 -3.39801,-2.657 -5.453,-3.45601 -2.04901,-0.795 -4.24097,-1.196 -6.51398,-1.196 -2.231018,0 -4.392029,0.39801 -6.416016,1.19 -2.028991,0.78501 -3.872985,1.948 -5.481994,3.45601 -1.583985,1.48299 -2.822998,3.215 -3.684021,5.15599 -0.862,1.946 -1.299988,3.97701 -1.299988,6.04401 0,2.202 0.427002,4.30099 1.265991,6.244 0.83899,1.943 2.08899,3.706 3.716004,5.24399 1.56604,1.48001 3.39801,2.636 5.447998,3.438 2.048034,0.803 4.218994,1.21201 6.452026,1.21201 2.28796,0 4.474,-0.395 6.492,-1.17601 2.02198,-0.78499 3.87598,-1.94899 5.51099,-3.467 1.57098,-1.47 2.802,-3.197 3.65497,-5.13 0.85504,-1.935 1.289,-3.987 1.289,-6.09299 0,-2.23201 -0.422,-4.333 -1.25397,-6.248 -0.833,-1.914 -2.086,-3.67001 -3.72601,-5.218 m -2.27496,15.21399 c -0.52405,1.22601 -1.28302,2.32501 -2.25806,3.27101 -0.98895,0.97299 -2.12396,1.71899 -3.37299,2.218 -1.255,0.50099 -2.61999,0.75499 -4.06097,0.75499 -1.395996,0 -2.752991,-0.263 -4.036987,-0.776 -1.275025,-0.50999 -2.403015,-1.246 -3.344055,-2.19099 -0.981995,-0.952 -1.737,-2.051 -2.254944,-3.27201 -0.516052,-1.22 -0.778015,-2.522 -0.778015,-3.871 0,-1.35899 0.261963,-2.67799 0.778991,-3.91299 0.516968,-1.23 1.268982,-2.317 2.234009,-3.23 1.020996,-0.96901 2.18396,-1.724 3.45697,-2.244 1.265992,-0.517 2.593994,-0.782 3.944031,-0.782 1.409,0 2.76196,0.259 4.02496,0.774 1.25403,0.50899 2.38703,1.26099 3.357,2.235 1.02405,1.004 1.80401,2.12599 2.32202,3.329 0.51398,1.19699 0.776,2.487 0.776,3.83099 0,1.349 -0.26501,2.64801 -0.78796,3.866"
           clip-path="url(#SVGID_2_)"
           id="path12"
           transform="translate(37.818726)" /><g
           id="g2189"
           transform="translate(22.733949)"><path
             class="st1"
             d="m 17.615,149.29741 c 0,2.345 0.647949,4.20801 1.947998,5.59001 1.29895,1.381 3.033996,2.06999 5.209961,2.06999 2.176025,0 3.911987,-0.68899 5.212036,-2.06999 1.297973,-1.382 1.94696,-3.24501 1.94696,-5.59001 v -12.80899 h 1.806032 v 12.713 c 0,2.94099 -0.809997,5.27099 -2.429018,6.996 -1.619018,1.724 -3.801025,2.587 -6.543029,2.587 -2.731995,0 -4.903992,-0.86 -6.511963,-2.576 -1.609986,-1.72301 -2.411988,-4.05501 -2.411988,-7.007 v -12.713 H 17.615 Z"
             clip-path="url(#SVGID_2_)"
             id="path14" /><polygon
             class="st1"
             points="56.182079,137.55331 57.714123,137.55331 57.714123,156.8063 56.300121,156.8063 42.189098,139.78032 42.189098,156.8063 40.656139,156.8063 40.656139,137.55331 42.248119,137.55331 56.182079,154.35431 "
             clip-path="url(#SVGID_2_)"
             id="polygon16" /><rect
             x="64.685982"
             y="137.83351"
             class="st1"
             width="1.6450195"
             height="19.251999"
             clip-path="url(#SVGID_2_)"
             id="rect18" /><polygon
             class="st1"
             points="79.950386,157.42661 71.864388,137.8336 73.540352,137.8336 80.059334,153.99261 86.633369,137.8336 88.254341,137.8336 80.195381,157.42661 "
             clip-path="url(#SVGID_2_)"
             id="polygon20" /><polygon
             class="st1"
             points="103.39399,155.7919 103.39399,157.0849 92.85804,157.0849 92.85804,137.8329 103.17701,137.8329 103.17701,139.07391 94.392036,139.07391 94.392036,146.71391 102.89204,146.71391 102.89204,147.95491 94.392036,147.95491 94.392036,155.7919 "
             clip-path="url(#SVGID_2_)"
             id="polygon22" /><path
             class="st2"
             d="m 111.72993,139.13161 v 7.382 h 1.16699 c 1.45099,0 2.45697,-0.034 3.018,-0.106 0.56299,-0.077 1.03595,-0.19699 1.41596,-0.37399 0.69702,-0.31202 1.22003,-0.74701 1.57001,-1.30301 0.34802,-0.56099 0.52203,-1.25299 0.52203,-2.077 0,-1.121 -0.38904,-1.989 -1.17505,-2.602 -0.78497,-0.61499 -1.89599,-0.92 -3.33697,-0.92 z m -1.534,-1.29801 h 4.633 c 2.02099,0 3.57098,0.416 4.64996,1.24601 1.07904,0.833 1.61798,2.022 1.61798,3.57099 0,1.18502 -0.29999,2.16501 -0.90399,2.944 -0.60199,0.78 -1.51398,1.36802 -2.72699,1.765 0.34399,0.20002 0.659,0.433 0.93799,0.69901 0.281,0.269 0.53302,0.571 0.76001,0.91099 l 5.23901,8.11602 h -1.72497 l -3.03602,-4.73401 c -0.59802,-0.927 -1.11401,-1.69 -1.54998,-2.288 -0.43402,-0.6 -0.77906,-1.03 -1.034,-1.283 -0.33606,-0.341 -0.77801,-0.58499 -1.33405,-0.729 -0.55096,-0.137 -1.36297,-0.21 -2.43096,-0.21 h -1.56299 v 9.24401 h -1.534 z"
             clip-path="url(#SVGID_2_)"
             id="path24" /><path
             class="st1"
             d="m 138.38759,140.57291 c -0.78803,-0.54099 -1.54102,-0.939 -2.25104,-1.198 -0.71197,-0.25699 -1.41797,-0.383 -2.117,-0.383 -1.15497,0 -2.09796,0.33901 -2.831,1.023 -0.73602,0.68501 -1.104,1.546 -1.104,2.58 0,0.845 0.23602,1.532 0.70703,2.063 0.47101,0.53101 1.48596,1.135 3.047,1.80501 0.088,0.034 0.22699,0.091 0.40796,0.16399 1.76501,0.72601 2.94,1.423 3.52899,2.095 0.41302,0.448 0.72302,0.964 0.93402,1.541 0.216,0.578 0.32202,1.19301 0.32202,1.84401 0,1.53499 -0.52801,2.79399 -1.58301,3.78099 -1.057,0.989 -2.40503,1.48001 -4.04999,1.48001 -0.82501,0 -1.64202,-0.14301 -2.45599,-0.427 -0.81,-0.28601 -1.63,-0.71401 -2.45801,-1.287 v -1.86901 c 0.89801,0.703 1.75098,1.23 2.555,1.57401 0.80096,0.34199 1.58001,0.51599 2.33197,0.51599 1.24499,0 2.229,-0.34599 2.953,-1.032 0.72803,-0.69099 1.08801,-1.623 1.08801,-2.808 0,-0.86799 -0.24499,-1.586 -0.73797,-2.14 -0.49604,-0.55299 -1.62305,-1.203 -3.38001,-1.947 -1.82098,-0.76 -3.06799,-1.53 -3.73901,-2.305 -0.66797,-0.776 -1.00299,-1.768 -1.00299,-2.96699 0,-1.49701 0.51098,-2.72 1.52899,-3.66901 1.02099,-0.95199 2.35199,-1.42599 3.99402,-1.42599 0.74298,0 1.46899,0.104 2.177,0.30999 0.70697,0.20701 1.41699,0.527 2.13501,0.959 z"
             clip-path="url(#SVGID_2_)"
             id="path28" /><rect
             x="145.15303"
             y="137.83351"
             class="st1"
             width="1.6450195"
             height="19.251999"
             clip-path="url(#SVGID_2_)"
             id="rect30" /><path
             class="st2"
             d="m 160.15614,139.21661 h -4.60302 v 16.514 h 4.60302 c 1.25202,0 2.331,-0.101 3.23297,-0.314 0.90503,-0.209 1.68201,-0.54001 2.33704,-0.99 1.06091,-0.715 1.89392,-1.687 2.49597,-2.918 0.60401,-1.228 0.90894,-2.575 0.90894,-4.034 0,-1.459 -0.30493,-2.80499 -0.90894,-4.039 -0.60205,-1.235 -1.43506,-2.211 -2.49597,-2.92501 -0.65503,-0.45199 -1.43201,-0.778 -2.33704,-0.98699 -0.90197,-0.202 -1.98095,-0.307 -3.23297,-0.307 m 0.38202,-1.38301 c 1.45191,0 2.68994,0.14202 3.70899,0.42202 1.02099,0.27699 1.93896,0.71899 2.75793,1.32699 1.19507,0.898 2.12805,2.039 2.79407,3.42 0.66894,1.38 1.00195,2.864 1.00195,4.45199 0,1.57901 -0.33301,3.056 -1.00195,4.43702 -0.66602,1.38199 -1.599,2.52099 -2.79407,3.418 -0.81897,0.61699 -1.74499,1.06599 -2.78003,1.34999 -1.03198,0.287 -2.26294,0.42601 -3.68689,0.42601 h -6.60101 V 137.8336 Z"
             clip-path="url(#SVGID_2_)"
             id="path32" /><path
             class="st2"
             d="m 178.41719,149.44391 h 6.979 l -3.48498,-8.34601 z m -4.73291,7.64099 7.93091,-18.53699 h 0.58398 l 7.92908,18.53699 h -1.53503 l -2.69104,-6.39999 h -7.99195 l -2.677,6.39999 z"
             clip-path="url(#SVGID_2_)"
             id="path36" /><path
             class="st2"
             d="m 201.91731,139.21661 h -4.604 v 16.514 h 4.604 c 1.25391,0 2.32801,-0.101 3.23291,-0.314 0.90308,-0.209 1.68006,-0.54001 2.33399,-0.99 1.06311,-0.715 1.89599,-1.687 2.49804,-2.918 0.60498,-1.228 0.90601,-2.575 0.90601,-4.034 0,-1.459 -0.30103,-2.80499 -0.90601,-4.039 -0.60205,-1.235 -1.43493,-2.211 -2.49804,-2.92501 -0.65393,-0.45199 -1.43091,-0.778 -2.33399,-0.98699 -0.9049,-0.202 -1.979,-0.307 -3.23291,-0.307 m 0.38001,-1.38301 c 1.4519,0 2.68994,0.14202 3.70996,0.42202 1.02099,0.27699 1.93994,0.71899 2.75598,1.32699 1.19702,0.898 2.13098,2.039 2.797,3.42 0.66601,1.38 1.00305,2.864 1.00305,4.45199 0,1.57901 -0.33704,3.056 -1.00305,4.43702 -0.66602,1.38199 -1.59998,2.52099 -2.797,3.418 -0.81604,0.61699 -1.74304,1.06599 -2.77795,1.34999 -1.03309,0.287 -2.26307,0.42601 -3.68799,0.42601 h -6.6001 V 137.8336 Z"
             clip-path="url(#SVGID_2_)"
             id="path40" /></g></g></g></g><text
     xml:space="preserve"
     style="font-style:normal;font-variant:normal;font-weight:normal;font-stretch:normal;font-size:32.1541px;font-family:sans-serif;-inkscape-font-specification:sans-serif;fill:#374323;fill-opacity:1;stroke-width:2.67952"
     x="-748.05066"
     y="839.27283"
     id="text4195"><tspan
       sodipodi:role="line"
       id="tspan4193"
       style="font-style:normal;font-variant:normal;font-weight:normal;font-stretch:normal;font-family:sans-serif;-inkscape-font-specification:sans-serif;fill:#374323;fill-opacity:1;stroke-width:2.67952"
       x="-748.05066"
       y="839.27283">Vigilada Mineducación</tspan></text></g></g>
</g><g
       id="g253"
       transform="matrix(0.39987524,0,0,-0.39987524,-92.06017,404.20391)"><path
         d="m 401.17,766.12 -4.93,4.917 h -10.675 l -4.955,-4.958 v -17.553 l 4.955,-4.96 h 10.675 l 4.93,4.905 z m -15.489,-2.169 1.995,1.994 h 6.464 l 1.994,-1.994 v -13.292 l -1.994,-1.995 h -6.464 l -1.995,1.995 z"
         fill="#ba0c2f"
         id="path249" /><path
         d="m 7.9863,1.0723 -7.0586,7.0547 3e-5,23.359 7.0098,7.098 h 14.598 l 7.052,-7.064 V 8.125 l -7.006,-7.0527 h -14.596 z m 14.305,0.6367 6.598,6.6152 0.019,22.922 -6.662,6.664 H 8.2723 L 1.5628,31.1972 V 8.4122 l 6.709,-6.7011 14.02,-0.0019 z m -10.633,8.316 -1.9529,1.952 v 15.796 l 1.9099,1.911 h 7.272 l 1.892,-1.895 V 12.006 l -1.98,-1.981 z m 68.399,0.368 c -3.637,0 -5.245,2.115 -5.245,6.031 0,3.932 1.591,6.099 5.227,6.099 3.636,0 5.242,-2.115 5.242,-6.031 0,-3.932 -1.589,-6.099 -5.224,-6.099 z m 42.053,0 c -2.68,0 -3.95,1.242 -3.95,3.287 0,2.516 1.94,3.041 3.77,3.652 1.16,0.385 2.1,0.578 2.1,1.924 0,1.485 -1.22,1.939 -2.59,1.939 -1.33,0 -2.08,-0.261 -2.08,-0.261 l -0.22,-1.61 h -1 v 2.5 c 0,0 1.63,0.699 3.65,0.699 2.9,0 4.34,-1.294 4.34,-3.496 0,-4.667 -5.87,-2.743 -5.87,-5.662 0,-1.346 1.04,-1.695 2.06,-1.695 1.01,0 2.06,0.226 2.06,0.226 l 0.23,1.504 h 0.99 v -2.343 c -0.99,-0.384 -2.27,-0.664 -3.49,-0.664 z m -83.075,0.211 v 2.673 h 0.944 l 0.21,-1.451 h 2.657 v 9.387 l -1.416,0.209 v 0.892 h 5.033 v -0.892 l -1.416,-0.209 v -9.387 h 2.656 l 0.211,1.451 h 0.943 v -2.673 z m 128.64,0 v 0.89 l 1.42,0.209 v 5.82 c 0,1.294 -0.11,2.782 0.89,3.778 0.77,0.769 1.99,1.222 3.63,1.222 1.66,0 2.78,-0.332 3.46,-1.013 0.95,-0.945 1.07,-1.82 1.07,-3.828 v -5.979 l 1.42,-0.209 v -0.89 h -4.27 v 0.89 l 1.42,0.209 v 6.854 c 0,0.89 -0.23,1.571 -0.65,2.007 -0.47,0.508 -1.19,0.684 -2.06,0.684 -1.64,0 -2.71,-0.769 -2.71,-2.691 v -6.854 l 1.42,-0.209 v -0.89 z m -155.74,0.06 h 6.627 l 1.58,1.58 v 15.277 l -1.522,1.522 h -6.746 l -1.498,-1.496 V 12.223 Z m 68.123,1.006 c 1.94,0 2.9,1.572 2.9,4.807 0,3.215 -0.994,4.771 -2.936,4.771 -1.94,0 -2.902,-1.574 -2.902,-4.809 0,-3.215 0.998,-4.769 2.938,-4.769 z m 27.733,1.309 c -3.09,0 -4.45,1.698 -4.45,4.738 0,3.041 1.34,4.771 4.44,4.771 3.09,0 4.45,-1.694 4.45,-4.736 0,-3.04 -1.34,-4.773 -4.44,-4.773 z m 124.25,0.001 c -2.25,0 -3.39,0.995 -3.39,2.639 0,2.29 2.17,2.534 3.86,3.111 0.58,0.193 0.97,0.438 0.97,1.137 0,0.996 -0.86,1.363 -1.98,1.363 -1.03,0 -1.7,-0.191 -1.7,-0.191 l -0.22,-1.504 h -0.95 v 2.377 c 0,0 1.44,0.576 3.15,0.576 2.43,0 3.72,-1.014 3.72,-2.797 0,-3.635 -4.84,-2.271 -4.84,-4.316 0,-0.891 0.75,-1.189 1.61,-1.189 0.86,0 1.63,0.175 1.63,0.175 l 0.22,1.432 h 0.95 v -2.272 c -0.93,-0.332 -2,-0.541 -3.03,-0.541 z m -182.48,0.157 v 0.84 l 1.363,0.209 v 7.08 l -1.363,0.209 v 0.839 h 4.771 v -0.839 l -1.31,-0.209 v -3.2 h 3.496 v 3.2 l -1.313,0.209 v 0.839 h 4.772 v -0.839 l -1.362,-0.209 v -7.08 l 1.362,-0.209 v -0.84 h -4.772 v 0.84 l 1.313,0.209 v 2.761 h -3.496 v -2.761 l 1.31,-0.209 v -0.84 z m 11.431,0 v 0.84 l 1.364,0.209 v 7.08 l -1.364,0.209 v 0.839 h 7.916 v -2.429 h -0.89 l -0.211,1.31 h -3.354 v -3.164 h 2.098 l 0.207,1.172 h 0.787 v -3.392 h -0.787 l -0.207,1.171 h -2.098 v -2.726 h 3.354 l 0.211,1.31 h 0.89 v -2.429 z m 25.239,0 v 0.84 l 1.361,0.209 v 7.08 l -1.361,0.209 v 0.839 h 4.771 v -0.839 l -1.312,-0.209 v -3.2 h 3.496 v 3.2 l -1.311,0.209 v 0.839 h 4.772 v -0.839 l -1.364,-0.209 v -7.08 l 1.364,-0.209 v -0.84 h -4.772 v 0.84 l 1.311,0.209 v 2.761 h -3.496 v -2.761 l 1.312,-0.209 v -0.84 z m 11.552,0 v 0.84 l 1.364,0.209 v 7.08 l -1.364,0.209 v 0.839 h 4.821 v -0.839 l -1.36,-0.209 v -7.08 l 1.36,-0.209 v -0.84 z m 29.171,0 v 2.535 h 0.89 l 0.21,-1.416 h 2.03 v 7.008 l -1.37,0.211 v 0.839 h 4.83 v -0.839 l -1.36,-0.211 v -7.008 h 2.02 l 0.21,1.416 h 0.89 v -2.535 z m 12.25,0 -3.15,8.129 -1.31,0.209 v 0.839 h 4.01 v -0.839 l -1.31,-0.209 0.64,-1.661 h 3.5 l 0.64,1.661 -1.31,0.209 v 0.839 h 4.76 v -0.839 l -1.31,-0.209 -3.15,-8.129 z m 5.91,0 v 2.535 h 0.89 l 0.21,-1.416 h 2.03 v 7.008 l -1.37,0.211 v 0.839 h 4.83 v -0.839 l -1.37,-0.211 v -7.008 h 2.03 l 0.21,1.416 h 0.89 v -2.535 z m 9.16,0 v 0.84 l 1.36,0.209 v 7.08 l -1.36,0.209 v 0.839 h 7.91 v -2.429 h -0.89 l -0.21,1.31 h -3.35 v -3.164 h 2.09 l 0.21,1.172 h 0.79 v -3.392 h -0.79 l -0.21,1.171 h -2.09 v -2.726 h 3.35 l 0.21,1.31 h 0.89 v -2.429 z m 25.85,0 v 0.84 l 1.36,0.209 v 7.08 l -1.36,0.209 v 0.839 h 4.1 v -0.839 l -1.36,-0.209 v -5.508 l 4.67,6.556 h 1.64 v -8.128 l 1.36,-0.209 v -0.84 h -4.1 v 0.84 l 1.36,0.209 v 5.209 l -4.48,-6.258 z m 11.5,0 v 0.84 l 1.36,0.209 v 7.08 l -1.36,0.209 v 0.839 h 4.82 v -0.839 l -1.36,-0.209 v -7.08 l 1.36,-0.209 v -0.84 z m 5.61,0 v 0.84 l 1.31,0.209 3.06,8.128 h 2.02 l 3.06,-8.128 1.31,-0.209 v -0.84 h -4 v 0.84 l 1.31,0.209 -2.31,6.293 -2.32,-6.293 1.31,-0.209 v -0.84 z m 11.48,0 v 0.84 l 1.36,0.209 v 7.08 l -1.36,0.209 v 0.839 h 7.92 v -2.429 h -0.89 l -0.21,1.31 h -3.36 v -3.164 h 2.1 l 0.21,1.172 h 0.78 v -3.392 h -0.78 l -0.21,1.171 h -2.1 v -2.726 h 3.36 l 0.21,1.31 h 0.89 v -2.429 z m 9.33,0 v 0.84 l 1.37,0.211 v 7.076 l -1.37,0.211 v 0.839 h 4.77 v -0.839 l -1.31,-0.211 v -3.092 h 0.16 c 1.22,0 1.57,0.646 2.15,2.045 l 0.86,2.097 h 2.97 v -0.839 l -1.31,-0.211 c -0.39,-0.908 -1.05,-2.796 -1.82,-3.371 0.96,-0.299 1.66,-1.26 1.66,-2.327 0,-0.681 -0.26,-1.275 -0.73,-1.712 -0.72,-0.665 -1.82,-0.717 -2.77,-0.717 z m 18.69,0 v 0.84 l 1.36,0.209 v 7.08 l -1.36,0.209 v 0.839 h 4.82 v -0.839 l -1.36,-0.209 v -7.08 l 1.36,-0.209 v -0.84 z m 5.82,0 v 2.535 h 0.89 l 0.21,-1.416 h 2.03 v 7.008 l -1.37,0.211 v 0.839 h 4.83 v -0.839 l -1.37,-0.211 v -7.008 h 2.03 l 0.21,1.416 h 0.89 v -2.535 z m 9.21,0 v 0.84 l 1.31,0.209 2.71,4.142 v 2.938 l -1.37,0.209 v 0.839 h 4.83 v -0.839 l -1.36,-0.209 v -2.938 l 2.67,-4.142 1.31,-0.209 v -0.84 h -4.05 v 0.84 l 1.25,0.209 -1.87,2.972 -1.88,-2.972 1.31,-0.209 v -0.84 z m -143.97,1.049 c 1.47,0 2.24,1.083 2.24,3.566 0,2.465 -0.8,3.531 -2.27,3.531 -1.47,0 -2.22,-1.084 -2.22,-3.566 0,-2.464 0.78,-3.531 2.25,-3.531 z m 113.71,0.017 h 0.62 c 0.47,0 1.22,-0.034 1.57,0.332 0.29,0.315 0.38,0.7 0.38,1.102 0,0.402 -0.07,0.77 -0.35,1.084 -0.43,0.488 -1.26,0.418 -1.85,0.418 h -0.37 z m -81.67,0.699 1.33,3.637 h -2.66 z m -100.77,13.772 v 0.654 h 223.48 v -0.654 z"
         transform="matrix(0.8,0,0,-0.8,378.71,773.2)"
         fill="#666666"
         id="path251" /></g><g
       transform="matrix(0.05975054,0,0,-0.05975054,152.37596,125.02268)"
       id="g281"><path
         d="M 91.013,295.56 C 50.761,319.5 0,354.28 0,415.71 v 64.863 c 18.568,7.0217 47.255,15.812 91.008,15.812 44.258,0 74.634,-9.5678 91.013,-15.812 V 415.71 c 0,-61.948 -52.728,-97.647 -91.008,-120.16"
         fill="#ffffff"
         id="path269" /><g
         id="g279"><path
           d="m 109.85,329.06 c 0.2383,2.6139 1.3898,6.9703 1.3898,8.7479 0,0.8806 -0.2919,1.224 -0.9483,1.224 -0.9204,0 -2.4947,-1.4997 -4.4382,-3.5155 -2.5835,-2.6769 -5.4402,-5.6295 -8.2129,-8.5306 -6.8511,-7.1665 -6.5264,-13.132 -6.6292,-23.254 7.6173,4.59 14.578,9.0025 19.736,12.518 -0.7639,4.2186 -1.4039,7.2435 -0.897,12.81 z m -71.714,25.162 c -0.02803,1.1376 0.0047,3.6089 0,4.0387 -0.08175,6.6316 1.4739,10.135 4.0551,13.558 1.2474,1.6561 2.3219,3.1721 3.4501,4.6577 2.462,3.2469 3.6276,5.7229 4.1322,11.544 0.11679,1.3642 0.35739,3.5529 0.46951,4.5012 0.10044,0.8363 0.29899,1.8968 1.1936,1.8968 0.62602,0 0.92034,-0.4976 1.3221,-1.4506 0.57229,-1.3548 1.6982,-3.9617 2.3078,-5.3632 1.2964,-2.9782 4.5129,-3.8565 7.8719,-4.9684 2.469,-0.8152 7.1618,-2.4013 9.0469,-3.0156 1.5604,-0.5069 2.2424,-0.6634 3.2562,-0.6634 1.4506,0 2.1303,3.0623 2.5017,6.0102 0.31768,2.5111 0.69375,4.284 1.5627,4.284 0.96939,0 1.2754,-1.1633 1.3081,-2.0953 0.31301,-8.3554 -0.22191,-9.2267 4.9614,-15.414 3.7701,-4.4989 5.9191,-4.6998 8.9441,-5.1249 -1.1236,0.3363 -2.5671,1.6351 -2.5671,4.3704 v 3.0039 c 0,1.502 0.17987,3.0297 0.92268,4.7582 0.35038,0.8129 0.76149,2.2822 1.1469,3.1815 0.65872,1.5323 0.34571,1.9201 0.34571,2.9992 0,1.1399 -0.37607,2.2705 -1.2777,5.0035 -0.46251,1.4039 -1.0885,3.4454 -1.6912,5.1249 -1.878,5.2394 -2.6372,6.4751 -8.9067,7.3043 -2.0112,0.2686 -10.806,1.5136 -12.644,1.7753 -7.0333,0.9974 -12.541,1.3314 -15.407,6.0452 -3.4244,5.6271 -3.0787,12.49 -6.3723,12.49 -1.5604,0 -2.3896,-1.7473 -2.3896,-4.2957 0,-2.6769 1.0114,-7.01 1.0114,-14.55 0,-6.5171 -0.60733,-8.3344 -4.4055,-13.135 -0.98574,-1.245 -2.3125,-3.0763 -3.1604,-4.1415 -2.8288,-3.5482 -4.0808,-5.5477 -3.9079,-9.6822 0.44381,-10.705 2.1397,-18.568 2.9198,-22.646 z m 75.503,45.318 c 0.2756,-0.6891 0.5045,-1.4716 0.5045,-2.0556 0,-1.3128 -0.3246,-1.7146 -1.0464,-2.4877 -0.4345,-0.3878 -0.9157,-0.7942 -1.3548,-1.203 -0.7195,-0.3761 -1.3642,-0.8619 -1.7963,-1.4833 -0.8293,-1.1913 -1.4413,-1.9154 -1.4413,-2.6092 0,-0.2172 0.0724,-0.376 0.229,-0.5022 -1.0045,0.7452 -1.4062,1.8944 -1.4062,2.9175 0,0.9157 0.2989,1.4016 0.2989,2.2635 0,0.7288 -0.2055,1.4436 -0.3293,1.857 -1.4039,4.6951 -3.7654,10.283 -5.223,14.078 -1.4833,3.8705 -2.6489,5.9938 -4.3261,5.9938 -0.93202,0 -1.7613,-0.4601 -2.7423,-0.4601 1.3408,0.002 3.4127,1.2356 4.8283,3.0927 1.6491,2.177 1.7589,3.756 1.7589,5.821 0,0.8759 -0.3621,1.6398 -1.0558,2.4667 2.1233,-2.1654 3.4827,-4.9217 4.9216,-7.9724 3.1535,-6.6853 5.8865,-14.006 8.1803,-19.717 z m 22.044,13.964 c 0.2733,-0.7358 0.8993,-2.4223 1.0348,-2.8311 0.5162,-1.544 1.3501,-3.7864 1.3501,-6.4797 0,-2.7376 -0.1869,-3.5669 -0.9414,-6.3489 -0.9623,-3.5552 -1.3851,-4.9077 -1.544,-6.8605 -0.2686,0.5513 -5.3281,9.2851 -5.7135,9.9929 -0.3878,0.7125 -0.7101,1.4015 -0.7101,2.2238 0,0.8899 0.3831,1.4272 1.4622,2.1069 0.6471,0.4065 1.4856,0.8877 2.0533,1.1797 2.6068,1.3337 3.2305,2.9829 3.2328,4.7488 0,0.7405 -0.1074,1.4996 -0.2242,2.2681"
           fill="#96bee6"
           id="path271" /><g
           fill="#1e407c"
           id="g277"><path
             d="m 57.507,326.26 c 10.745,-8.3858 22.249,-15.802 33.508,-22.53 0.10277,10.121 -0.22191,16.087 6.6292,23.254 2.7727,2.9011 5.6294,5.8537 8.2129,8.5306 1.9435,2.0158 3.5178,3.5155 4.4382,3.5155 0.6564,0 0.9483,-0.3434 0.9483,-1.224 0,-0.9017 0.4042,-4.221 2.4621,-8.1943 2.5601,-4.938 6.3419,-5.5734 7.5519,-5.8537 29.332,22.081 53.863,50.98 53.863,92.097 v 59.922 c -7.2343,2.4574 -36.951,13.856 -84.113,13.856 -47.161,0 -76.876,-11.399 -84.11,-13.856 v -59.922 c 0,-18.073 4.7418,-33.784 12.546,-47.594 0.77784,8.325 6.4073,12.27 6.4073,20.448 0,5.7066 -1.6141,9.3108 -1.6141,14.088 0,8.6381 11.663,26.409 17.711,33.648 0.17753,0.2126 0.56996,0.7195 1.0558,0.7195 0.43447,0 0.76383,-0.3014 1.0278,-0.7078 0.61667,-0.9437 0.88062,-1.4412 1.5393,-1.4412 0.66339,0 0.92034,0.369 0.92034,0.9577 0,1.5066 -1.7402,4.0154 -1.7402,13.833 0,6.8652 1.5954,8.3204 5.863,12.499 0.78018,0.7639 3.1674,3.0577 5.4449,3.0577 2.5344,0 3.7911,-1.4996 5.3515,-3.0857 2.6372,-2.6839 6.3162,-7.4374 6.9119,-8.1896 0.16818,-0.2102 0.31768,-0.4041 0.67741,-0.4041 1.2193,0 2.2401,0.3667 7.5379,0.3667 9.6285,0 24.137,-1.5113 31.595,-3.9523 3.8401,-1.2567 4.639,-2.1233 5.6575,-2.1233 0.4975,0 0.5395,0.3247 0.5395,0.584 0,0.4859 -1.0114,1.266 -1.0114,1.9271 0,0.4391 0.3574,0.7615 0.7078,0.9507 5.5617,2.9876 10.31,5.2464 14.655,5.2464 2.5297,0 3.7794,-2.1911 4.8423,-4.3564 0.8315,-1.6889 1.7215,-3.9547 1.7215,-6.2836 0,-5.8887 -2.2495,-9.4789 -4.0434,-11.997 0.8596,-0.8806 2.0766,-2.2144 2.8171,-3.0997 1.3197,-1.5767 2.9058,-3.6347 2.9058,-5.7743 0,-0.9227 -0.4508,-2.3733 -0.7078,-3.5225 -0.1168,-0.5163 -0.5699,-1.551 -1.4669,-1.5324 -0.8082,0.0164 -1.0185,0.8994 -1.0488,1.6819 -0.007,0.1611 0,0.5162 0,0.5933 0,1.6935 -0.4695,3.9943 -2.0439,5.6061 -1.8103,1.85 -3.4688,3.1955 -5.5664,3.1955 h -0.7171 c -3.4408,0 -5.0058,-1.5043 -5.9518,-2.4247 -1.0325,-1.0067 -1.836,-2.3522 -1.836,-4.1648 0,-1.0395 0.7077,-2.2705 1.6491,-4.1556 0.5583,-1.1118 1.9855,-3.7607 2.7633,-5.1249 0.6798,-1.1889 1.5511,-1.6071 2.5274,-1.6071 2.3967,0 4.4849,0.3341 4.4849,1.0535 0,0.1962 -0.1051,0.3621 -0.4321,0.3621 -0.1402,0 -0.4695,-0.0397 -0.7662,-0.0397 -3.13,0 -4.8049,3.9826 -6.3746,7.5986 1.196,1.1656 2.5508,2.3615 5.0081,2.3615 3.1161,0 5.1647,-2.0929 5.1647,-4.8189 0,-1.3524 -0.4182,-2.483 -0.6634,-2.9899 -0.1215,-0.2569 -0.1892,-0.4158 -0.1892,-0.5629 0,-0.4252 0.5396,-0.5116 1.3922,-0.7078 0.3013,-0.0701 0.8806,-0.2079 1.2333,-0.3083 0.9157,-0.2687 1.8897,-1.0582 2.3032,-2.1631 0.2733,-0.7358 0.8993,-2.4223 1.0348,-2.8311 0.5162,-1.544 1.3501,-3.7864 1.3501,-6.4797 0,-2.7376 -0.1869,-3.5669 -0.9414,-6.3489 -0.9623,-3.5552 -1.3851,-4.9077 -1.544,-6.8605 0.3317,-0.6143 0.3598,-0.7848 0.5093,-1.1422 0.5372,-1.1306 1.238,-3.1978 1.238,-5.4356 v -1.843 c 0,-3.5646 -1.4226,-6.3396 -2.9619,-8.4185 -1.1983,-1.6164 -2.9152,-3.8963 -3.8986,-5.16 -0.64,-0.7661 -1.502,-1.3197 -2.462,-1.3197 -0.4579,0 -0.9974,0.1541 -1.537,0.2896 -0.6003,0.1495 -1.8757,0.4719 -2.42,0.6097 -2.0953,0.5302 -2.8708,1.899 -3.5482,3.7444 -0.1004,0.2756 -0.4181,1.0581 -0.5162,1.3081 -0.5022,1.2847 -0.7825,2.1069 -1.5814,2.1069 -0.5933,0 -1.1633,-0.3877 -1.7543,-1.28 -2.0952,-3.1511 -3.2328,-4.2934 -6.9188,-5.202 -1.2871,-0.3154 -3.9009,-0.862 -5.3655,-1.1866 -2.2074,-0.4906 -6.1504,-1.523 -8.3695,-1.523 -0.47185,0 -0.96706,0.028 -1.4763,0.0841 -3.025,0.4251 -5.174,0.626 -8.9441,5.1249 -5.1833,6.1877 -4.6484,7.059 -4.9614,15.414 -0.0327,0.932 -0.3387,2.0953 -1.3081,2.0953 -0.86895,0 -1.245,-1.7729 -1.5627,-4.284 -0.37141,-2.9479 -1.0512,-6.0102 -2.5017,-6.0102 -1.0138,0 -1.6958,0.1565 -3.2562,0.6634 -1.885,0.6143 -6.5778,2.2004 -9.0469,3.0156 -3.359,1.1119 -6.5755,1.9902 -7.8719,4.9684 -0.60967,1.4015 -1.7356,4.0084 -2.3078,5.3632 -0.40177,0.953 -0.69609,1.4506 -1.3221,1.4506 -0.89464,0 -1.0932,-1.0605 -1.1936,-1.8968 -0.11212,-0.9483 -0.35272,-3.137 -0.46951,-4.5012 -0.50455,-5.821 -1.6702,-8.297 -4.1322,-11.544 -1.1282,-1.4856 -2.2027,-3.0016 -3.4501,-4.6577 -2.5812,-3.4221 -4.1368,-6.9259 -4.0551,-13.558 0.0047,-0.4298 -0.02803,-2.9011 0,-4.0387 0.22892,-9.8691 2.733,-14.707 19.367,-27.96 z m 59.581,30.24 c -0.7802,-0.1915 -2.3102,-0.5699 -9.1263,-0.5699 -10.325,0 -12.076,2.5367 -12.076,4.5502 0,3.359 14.807,5.7299 20.642,5.7299 5.5898,0 8.0588,-1.7962 8.0588,-3.1651 0,-1.5837 -2.5204,-5.3421 -7.4982,-6.5451 z m -19.993,63.793 c 0,2.378 -2.6769,5.8631 -7.344,5.8631 -4.1509,0 -7.3206,-3.1324 -8.1499,-5.5804 0.99508,-1.9248 1.9528,-3.957 5.9331,-5.1623 0.52557,-0.1589 1.0535,-0.1729 1.0535,-0.6214 0,-0.6377 -0.67273,-0.9577 -2.0906,-0.9577 -4.5106,0 -7.1922,1.843 -8.3835,3.4011 -1.1656,-0.1635 -2.5157,-0.6167 -4.2022,-0.6774 -1.3805,-0.0514 -2.0089,0.8712 -2.0089,2.1023 0,0.7941 0.23593,1.6678 0.70777,2.6395 0.25929,0.5349 0.53726,1.0908 0.74048,1.4856 0.70076,1.3712 1.7706,4.4242 5.8887,6.7717 0.47886,0.2733 1.7239,1.0255 2.3616,1.4015 2.3312,1.3689 4.0925,1.6936 6.8651,1.6936 h 2.0322 c 3.3216,0 5.0198,-0.9344 6.4867,-2.1654 2.9759,-2.5041 4.611,-3.8659 4.611,-5.7252 0,-2.065 -0.1098,-3.644 -1.7589,-5.821 -1.4179,-1.8571 -3.4898,-3.0927 -4.8306,-3.0927 -0.37841,0 -0.4882,0.2055 -0.4882,0.4181 0,0.2826 0.31301,0.4228 0.6377,0.6844 1.0955,0.89 1.5907,2.4667 1.9388,3.3426 z m -41.555,13.32 c 1.0231,0 1.8033,0.6774 3.3496,2.3873 3.4594,3.8238 6.7997,4.3354 6.7997,5.9705 0,0.7264 -0.46717,1.4389 -0.95537,2.2004 -3.686,5.7602 -5.2604,8.8716 -7.4561,13.053 -0.7942,1.5136 -1.8313,2.5507 -2.6209,2.5507 -1.2754,0 -2.6208,-1.4879 -3.401,-2.7633 -1.1002,-1.7986 -2.1957,-3.8262 -2.1957,-5.6692 0,-2.7844 0.68441,-7.8672 1.8407,-11.123 1.2497,-3.5155 3.0647,-6.6059 4.639,-6.6059 z m 66.862,7.5752 c -0.1659,0.0935 -0.7545,0.3084 -0.7545,0.8924 0,0.6727 0.4882,1.3688 1.4786,2.6956 2.2798,3.0576 5.4099,6.802 6.5568,6.802 0.5606,0 0.911,-0.383 1.6024,-1.6958 0.4111,-0.7779 0.7638,-2.0766 0.7638,-3.31 0,-4.062 -1.4015,-6.9165 -3.5715,-10.142 -1.0815,1.0394 -3.095,3.0506 -6.0756,4.7581 z m -4.0131,-61.625 c 0,1.3759 1.1329,3.5132 1.1329,5.4239 0,2.2705 -2.7843,2.9923 -4.9474,3.2913 -4.5502,0.6307 -6.0686,0.4251 -6.0686,1.4295 0,0.6938 0.612,1.4179 1.4413,2.6092 1.224,1.7589 4.1391,2.4247 5.6902,2.6372 2.0439,0.2803 4.3073,0.5536 7.0193,0.5536 3.039,0 5.6201,-0.4531 6.8067,-0.661 2.7891,-0.4836 3.2235,-1.6515 3.2235,-2.9596 v -1.3081 c 0,-1.3198 -1.0815,-1.9972 -3.0273,-2.4223 -0.4858,-0.1051 -1.1679,-0.2289 -1.4949,-0.2966 -1.4109,-0.292 -3.1581,-0.5723 -3.7771,-2.3546 -1.3291,-3.8238 -3.6417,-6.8231 -5.3539,-6.746 -0.3153,0.014 -0.6447,0.2523 -0.6447,0.8035"
             id="path273" /><path
             d="m 447.18,444.62 c -0.8479,0.299 -4.1088,1.3548 -7.0941,1.3548 -6.4844,0 -9.0772,-3.5201 -9.0772,-6.6268 0,-4.0598 3.0156,-5.9378 6.4961,-6.8138 l 5.5313,-1.4506 c 7.7902,-2.0696 16.414,-5.3772 16.414,-16.923 0,-10.588 -6.8091,-17.713 -21.862,-17.713 -5.8234,0 -11.876,0.6377 -18.986,3.1067 v 14.73 h 10.004 v -7.1922 c 1.5908,-0.4368 6.1317,-1.5674 9.9649,-1.5674 5.9097,0 8.7759,2.4667 8.7759,6.6853 0,3.4922 -1.9738,6.0172 -9.0843,7.928 l -4.7581,1.3104 c -10.895,2.9479 -14.599,8.1873 -14.599,16.788 0,8.8366 5.9004,15.858 20.876,15.858 6.4306,0 12.859,-1.1143 17.4,-2.9456 v -13.296 h -10.002 v 6.767 z m 72.118,-29.542 c -9.0772,0 -11.943,-1.9084 -11.943,-5.494 0,-2.4667 1.7519,-5.0151 6.1317,-5.0151 4.4592,0 8.9161,3.4968 8.9161,10.509 h -3.1044 z m 3.2655,8.8413 c 0,5.7509 -2.796,7.9607 -8.4208,7.9607 -3.5926,0 -6.1714,-0.9297 -6.9095,-1.1937 v -5.5734 h -9.0352 v 10.589 c 1.4903,0.8455 8.1779,4.3003 15.804,4.3003 11.6,0 19.066,-4.7185 19.066,-16.386 v -18.091 h 4.305 v -8.1218 h -13.485 l -0.3247,5.6692 h -0.1612 c -0.8269,-1.161 -3.8659,-6.6246 -13.261,-6.6246 -9.3949,0 -13.934,5.5734 -13.934,12.104 0,7.921 6.078,13.371 21.352,13.371 h 5.0034 v 1.9972 z m -52.933,24.046 h 11.147 v -8.9184 h 11.147 v -8.1218 h -11.147 v -18.552 c 0,-5.5827 1.9528,-7.3253 6.5732,-7.3253 1.7285,0 4.0948,0.4625 4.9637,0.6354 v -7.9093 c -0.9156,-0.2756 -4.9637,-1.3268 -9.173,-1.3268 -8.2012,0 -13.511,4.4102 -13.511,11.736 v 22.742 h -5.6528 v 8.1218 h 5.6528 v 8.9184 z m 75.12,0 h 11.147 v -8.9184 h 11.147 v -8.1218 h -11.147 v -18.552 c 0,-5.5827 1.9528,-7.3253 6.5708,-7.3253 1.7309,0 4.0972,0.4625 4.9661,0.6354 v -7.9093 c -0.9156,-0.2756 -4.9661,-1.3268 -9.173,-1.3268 -8.2012,0 -13.511,4.4102 -13.511,11.736 v 22.742 h -5.6528 v 8.1218 h 5.6528 v 8.9184 z m -177.72,-17.04 h -5.4145 v 8.1218 h 15.293 l 0.306,-5.4496 h 0.1588 c 0.7381,1.1516 4.3681,6.405 12.796,6.405 10.57,0 16.115,-7.4468 16.115,-16.603 v -17.874 h 4.7768 v -8.1218 h -20.462 v 8.1218 h 4.5386 v 15.952 c 0,5.8069 -3.2189,8.9697 -8.5096,8.9697 -4.7769,0 -8.4512,-2.6816 -8.4512,-8.9697 v -15.952 h 4.7792 v -8.1218 h -20.467 v 8.1218 h 4.5409 v 25.4 z m -54.29,0 h -5.4146 v 8.1218 h 15.293 l 0.306,-5.4496 h 0.1588 c 0.7382,1.1516 4.3681,6.405 12.796,6.405 10.568,0 16.115,-7.4468 16.115,-16.603 v -17.874 h 4.7769 v -8.1218 h -20.462 v 8.1218 h 4.5386 v 15.952 c 0,5.8069 -3.2212,8.9697 -8.5119,8.9697 -4.7746,0 -8.4489,-2.6816 -8.4489,-8.9697 v -15.952 h 4.7769 v -8.1218 h -20.465 v 8.1218 h 4.541 v 25.4 z m 286.2,-7.5636 c 0,5.7323 -3.2655,8.9978 -8.4395,8.9978 -5.0969,0 -8.0424,-3.345 -8.5213,-8.9978 h 16.961 z m -16.881,-7.6453 c 0.3201,-6.6082 5.4146,-10.668 13.219,-10.668 6.8698,0 11.084,1.8991 12.901,2.6326 v -8.6054 c -1.6982,-0.6798 -6.3419,-2.6279 -15.37,-2.6279 -16.085,0 -22.852,10.035 -22.852,21.579 0,12.978 7.8836,21.976 20.941,21.976 14.333,0 20.145,-10.829 20.145,-24.286 h -28.984 z m -291.75,7.6453 c 0,5.7323 -3.2656,8.9978 -8.4396,8.9978 -5.0968,0 -8.0424,-3.345 -8.5212,-8.9978 h 16.961 z m -16.881,-7.6453 c 0.32,-6.6082 5.4145,-10.668 13.219,-10.668 6.8698,0 11.084,1.8991 12.901,2.6326 v -8.6054 c -1.6982,-0.6798 -6.3419,-2.6279 -15.37,-2.6279 -16.085,0 -22.852,10.035 -22.852,21.579 0,12.978 7.8836,21.976 20.941,21.976 14.333,0 20.145,-10.829 20.145,-24.286 h -28.984 z m -35.893,11.308 c 5.8116,0 9.6074,3.3403 9.6074,8.9931 0,5.1319 -3.3146,9.0025 -9.7663,9.0025 h -7.1127 v -17.996 h 7.2716 z m -18.897,17.996 h -5.494 v 8.1218 h 25.59 c 13.457,0 20.483,-7.0684 20.483,-17.124 0,-11.939 -9.4159,-17.115 -20.483,-17.115 h -8.4699 v -13.378 h 5.494 v -8.1218 h -22.614 v 8.1218 h 5.494 v 39.495"
             id="path275" /></g></g></g></g><style
     type="text/css"
     id="style2">
	.st0{clip-path:url(#SVGID_2_);fill:#EB8906;}
	.st1{clip-path:url(#SVGID_2_);fill:#374323;}
	.st2{clip-path:url(#SVGID_2_);fill-rule:evenodd;clip-rule:evenodd;fill:#374323;}
</style></svg>
